#tb 0: 1/44100
#media_type 0: audio
#codec_id 0: pcm_s16le
#sample_rate 0: 44100
#channel_layout_name 0: stereo
0,          0,          0,     4096,    16384, 0xae60f011
0,       4096,       4096,     4096,    16384, 0xbe13f115
0,       8192,       8192,     4096,    16384, 0xbac6ef0f
0,      12288,      12288,     4096,    16384, 0xa3eff315
0,      16384,      16384,     4096,    16384, 0x62f9f315
0,      20480,      20480,     4096,    16384, 0xcb1cf00f
0,      24576,      24576,     4096,    16384, 0x4791f017
0,      28672,      28672,     4096,    16384, 0xd93af011
0,      32768,      32768,     4096,    16384, 0xae60f011
0,      36864,      36864,     4096,    16384, 0xbe13f115
0,      40960,      40960,     4096,    16384, 0x6340f1b9
0,      45056,      45056,     4096,    16384, 0xdafdf81d
0,      49152,      49152,     4096,    16384, 0x2bd1f2eb
0,      53248,      53248,     4096,    16384, 0xa4b8ea3f
0,      57344,      57344,     4096,    16384, 0x576bf8bb
0,      61440,      61440,     4096,    16384, 0xcba0ec91
0,      65536,      65536,     4096,    16384, 0x832ff68f
0,      69632,      69632,     4096,    16384, 0xd4b7e9f9
0,      73728,      73728,     4096,    16384, 0xcb87f2eb
0,      77824,      77824,     4096,    16384, 0xdbd5ef71
0,      81920,      81920,     4096,    16384, 0x6cb50d58
0,      86016,      86016,     4096,    16384, 0x81eef56d
0,      90112,      90112,     4096,    16384, 0x728aeea7
0,      94208,      94208,     4096,    16384, 0x23eafb79
0,      98304,      98304,     4096,    16384, 0x2d16f967
0,     102400,     102400,     4096,    16384, 0xc146fd63
0,     106496,     106496,     4096,    16384, 0x054eee6b
0,     110592,     110592,     4096,    16384, 0x7e7bedad
0,     114688,     114688,     4096,    16384, 0x5c34ee1b
0,     118784,     118784,     4096,    16384, 0x80b8e9ab
0,     122880,     122880,     4096,    16384, 0xf377f743
0,     126976,     126976,     4096,    16384, 0xbe0cedcf
0,     131072,     131072,     4096,    16384, 0x44a8f466
0,     135168,     135168,     4096,    16384, 0x12d5f065
0,     139264,     139264,     4096,    16384, 0xca27f30e
0,     143360,     143360,     4096,    16384, 0x6776f1a7
0,     147456,     147456,     4096,    16384, 0x7d11ec17
0,     151552,     151552,     4096,    16384, 0x1a4cf5dd
0,     155648,     155648,     4096,    16384, 0x3237eac5
0,     159744,     159744,     4096,    16384, 0x89b3f297
0,     163840,     163840,     4096,    16384, 0xfdc6f176
0,     167936,     167936,     4096,    16384, 0x7f3becc1
0,     172032,     172032,     4096,    16384, 0xd7e9ef7e
0,     176128,     176128,     4096,    16384, 0xe5b8ac16
0,     180224,     180224,     4096,    16384, 0x8e04e97f
0,     184320,     184320,     4096,    16384, 0x4b245c36
0,     188416,     188416,     4096,    16384, 0x41acea85
0,     192512,     192512,     4096,    16384, 0xf9387346
0,     196608,     196608,     4096,    16384, 0xbfcfe96d
0,     200704,     200704,     4096,    16384, 0xe4805e59
0,     204800,     204800,     4096,    16384, 0x6c4dee97
0,     208896,     208896,     4096,    16384, 0xe2826c78
0,     212992,     212992,     4096,    16384, 0x8e04e97f
0,     217088,     217088,     4096,    16384, 0x4b245c36
0,     221184,     221184,     4096,    16384, 0x41acea85
0,     225280,     225280,     4096,    16384, 0xf9387346
0,     229376,     229376,     4096,    16384, 0xbfcfe96d
0,     233472,     233472,     4096,    16384, 0xe4805e59
0,     237568,     237568,     4096,    16384, 0x6c4dee97
0,     241664,     241664,     4096,    16384, 0xe2826c78
0,     245760,     245760,     4096,    16384, 0x8e04e97f
0,     249856,     249856,     4096,    16384, 0x4b245c36
0,     253952,     253952,     4096,    16384, 0x41acea85
0,     258048,     258048,     4096,    16384, 0xf9387346
0,     262144,     262144,     2456,     9824, 0x4fab8f4e
